<?xml version="1.0" standalone="no"?>
<!DOCTYPE svg PUBLIC "-//W3C//DTD SVG 20010904//EN"
 "http://www.w3.org/TR/2001/REC-SVG-20010904/DTD/svg10.dtd">
<svg version="1.0" xmlns="http://www.w3.org/2000/svg"
 width="96.000000pt" height="96.000000pt" viewBox="0 0 96.000000 96.000000"
 preserveAspectRatio="xMidYMid meet">

<g transform="translate(0.000000,96.000000) scale(0.100000,-0.100000)"
fill="#000000" stroke="none">
<path d="M0 480 l0 -480 480 0 480 0 0 480 0 480 -480 0 -480 0 0 -480z m612
383 c155 -73 267 -235 268 -389 0 -140 -67 -273 -182 -365 -70 -55 -109 -65
-185 -45 -33 9 -76 16 -94 16 -37 0 -160 60 -215 103 -19 16 -49 59 -71 104
-52 105 -57 190 -18 318 35 114 56 156 96 190 35 29 41 32 164 76 98 36 146
34 237 -8z"/>
</g>
</svg>
